# xmcd
#
# Track frame offsets:
#	150
#	16544
#	31193
#	42925
#	50967
#	64678
#	84795
#	94379
#	105151
#	131884
#	146052
#	157299
#
# Disc length: 2275 seconds
#
# Revision: 1
# Processed by: cddbd v1.4PL0 Copyright (c) Steve Scherf et al.
# Submitted via: audiograbber 1.81.03
#
DISCID=9c08e10c
DTITLE=John Mayall  - Blues Breakers With Eric Clapton
DYEAR=1969
DGENRE=
TTITLE0=All Your Love
TTITLE1=Hideway
TTITLE2=Little Girl
TTITLE3=Another Man
TTITLE4=Double Crossing Time
TTITLE5=What'd I Say
TTITLE6=Key To Love
TTITLE7=Parchman Farm
TTITLE8=Have You Heard
TTITLE9=Ramblin' on My Mind
TTITLE10=Steppin' Out
TTITLE11=It Ain't Right
EXTD=
EXTT0=
EXTT1=
EXTT2=
EXTT3=
EXTT4=
EXTT5=
EXTT6=
EXTT7=
EXTT8=
EXTT9=
EXTT10=
EXTT11=
PLAYORDER=
